# xmcd
#
# Track frame offsets:
#	150
#	14612
#	29580
#	44461
#	59083
#	74322
#	88617
#	103957
#	119097
#	133371
#	149182
#	164195
#	178407
#	193634
#	207418
#	221712
#	236662
#	251111
#
# Disc length: 3544 seconds
#
# Revision: 0
# Processed by: cddbd v1.5.2PL0 Copyright (c) Steve Scherf et al.
# Submitted via: EasyCDDAExtractor 16.0.6.1
#
DISCID=3f0dd612
DTITLE=Συλλογικός δίσκος - Ρεμπέτικο σεργιάνι 1928-48 Τραγούδια αλκοόλ
DYEAR=2001
DGENRE=Ρεμπέτικη
TTITLE0=Εσκενάζυ Ρόζα - Η μπολσεβίκα [Παναγιώτης Τούντας]
TTITLE1=Παγιουμτζής Στράτος - Γι' αυτό το ρίχνω στο ποτό [Στρ. Παγιουμτζής-Στε
TTITLE1=λλ. Περπινιάδης]
TTITLE2=Εσκενάζυ Ρόζα - Δημητρούλα [Παναγιώτης Τούντας]
TTITLE3=Τσιτσάνης Βασίλης-Μπέλλου Σωτηρία - Όταν πίνεις στην ταβέρνα [Βασίλης 
TTITLE3=Τσιτσάνης]
TTITLE4=Καναροπούλου Μαρίκα ή Τουρκαλίτσα - Νέα μερακλού [Κώστας Τζόβενος]
TTITLE5=Περδικόπουλος Δημήτρης - Με λικέρ και με σαμπάνια [Δημ. Περδικόπουλος-
TTITLE5=Β. Τσιτσάνης]
TTITLE6=Εσκενάζυ Ρόζα - Δραπετσώνα [Παναγιώτης Τούντας]
TTITLE7=Ρούκουνας Κώστας ή Σαμιωτάκης - Το κρασί είν' η ζωή μου [Γρηγόρης Ασίκ
TTITLE7=ης]
TTITLE8=Εσκενάζυ Ρόζα - Η τσαχπίνα στη Ραφήνα [Μανώλης Χρυσαφάκης]
TTITLE9=Γεωργακοπούλου Ιωάννα - Το καπηλειό [Γιώργος Μητσάκης]
TTITLE10=Περπινιάδης Στελλάκης - Στου Λινάρδου την ταβέρνα [Παναγιώτης Τούντας
TTITLE10=]
TTITLE11=Διαμαντίδης Αντώνης ή Νταλγκάς - Ο μπεκρής [Κώστας Σκαρβέλλης]
TTITLE12=Περπινιάδης Στελλάκης - Όνειρο ενός μπεκρή [Παναγιώτης Τούντας]
TTITLE13=Αμπατζή Ρίτα - Μαριανθάκι [Παναγιώτης Τούντας]
TTITLE14=Παγιουμτζής Στράτος - Το μινόρε της ταβέρνας [Παναγιώτης Τούντας]
TTITLE15=Εσκενάζυ Ρόζα - Στην ταβέρνα με την λατέρνα [Λάκης Μιχαηλίδης]
TTITLE16=Εσκενάζυ Ρόζα - Δυό σεβντάδες [Παναγιώτης Τούντας]
TTITLE17=Κασιμάτης Ζαχαρίας - Οφ αμάν [Σπύρος Περιστέρης]
EXTD=
EXTT0=
EXTT1=
EXTT2=
EXTT3=
EXTT4=
EXTT5=
EXTT6=
EXTT7=
EXTT8=
EXTT9=
EXTT10=
EXTT11=
EXTT12=
EXTT13=
EXTT14=
EXTT15=
EXTT16=
EXTT17=
PLAYORDER=
